<?xml version="1.0" encoding="UTF-8"?>
<svg id="Layer_1" data-name="Layer 1" xmlns="http://www.w3.org/2000/svg" width="109" height="44" xmlns:xlink="http://www.w3.org/1999/xlink" viewBox="0 0 109 44">
  <defs>
    <style>
      .cls-1 {
        fill: #fff;
      }

      .cls-2 {
        fill: url(#linear-gradient);
        fill-rule: evenodd;
      }
    </style>
    <linearGradient id="linear-gradient" x1="3.62" y1="803.02" x2="110.15" y2="838.56" gradientTransform="translate(0 -798)" gradientUnits="userSpaceOnUse">
      <stop offset="0" stop-color="#4ea9ff"/>
      <stop offset=".22" stop-color="#4a6aff"/>
      <stop offset=".46" stop-color="#4729ff"/>
      <stop offset=".7" stop-color="#774bea"/>
      <stop offset=".93" stop-color="#9a4aff"/>
    </linearGradient>
  </defs>
  <path class="cls-2" d="M87,2H22C10.95,2,2,10.95,2,22s8.95,20,20,20H87c11.05,0,20-8.95,20-20S98.05,2,87,2ZM22,0C9.85,0,0,9.85,0,22s9.85,22,22,22H87c12.15,0,22-9.85,22-22S99.15,0,87,0H22Z"/>
  <g>
    <path class="cls-1" d="M36.49,14.34l4.25,12.44h.17l4.25-12.44h2.49l-5.5,15.27h-2.66l-5.5-15.27h2.49Z"/>
    <path class="cls-1" d="M55.44,14.34v15.27h-2.31v-12.96h-.09l-3.65,2.39v-2.21l3.81-2.49h2.25Z"/>
    <path class="cls-1" d="M60.21,29.76c-.41,0-.76-.15-1.05-.44-.29-.29-.44-.64-.44-1.05s.15-.76,.44-1.05c.29-.29,.64-.44,1.05-.44s.76,.15,1.05,.44c.29,.29,.44,.64,.44,1.05,0,.27-.07,.52-.21,.75-.14,.23-.32,.41-.54,.54-.22,.13-.47,.2-.75,.2Z"/>
    <path class="cls-1" d="M69.4,29.87c-1.18,0-2.18-.32-3.02-.93-.83-.62-1.47-1.51-1.92-2.69-.44-1.18-.66-2.6-.66-4.26s.22-3.07,.67-4.24c.44-1.17,1.09-2.07,1.92-2.68,.84-.62,1.84-.92,3.01-.92s2.17,.31,3.01,.93c.83,.62,1.47,1.51,1.92,2.68,.44,1.17,.67,2.58,.67,4.24s-.22,3.09-.66,4.26-1.08,2.07-1.92,2.69c-.83,.62-1.84,.93-3.01,.93Zm0-1.99c1.03,0,1.84-.5,2.43-1.51,.58-1.01,.88-2.47,.88-4.38,0-1.27-.13-2.34-.4-3.22-.27-.88-.65-1.54-1.14-2-.5-.46-1.08-.68-1.76-.68-1.03,0-1.84,.51-2.42,1.52-.59,1.01-.88,2.47-.89,4.38,0,1.27,.13,2.35,.4,3.23,.27,.88,.65,1.54,1.14,1.99,.49,.45,1.08,.67,1.77,.67Z"/>
  </g>
</svg>