<?xml version="1.0" standalone="no"?>
<!DOCTYPE svg PUBLIC "-//W3C//DTD SVG 20010904//EN"
 "http://www.w3.org/TR/2001/REC-SVG-20010904/DTD/svg10.dtd">
<svg version="1.0" xmlns="http://www.w3.org/2000/svg"
 width="260.000000pt" height="260.000000pt" viewBox="0 0 260.000000 260.000000"
 preserveAspectRatio="xMidYMid meet">
<metadata>
Created by potrace 1.14, written by Peter Selinger 2001-2017
</metadata>
<g transform="translate(0.000000,260.000000) scale(0.100000,-0.100000)"
fill="#000000" stroke="none">
<path d="M1227 2564 c-1 -1 -35 -5 -75 -8 -40 -4 -114 -17 -165 -30 -676 -172
-1086 -862 -912 -1536 59 -230 180 -437 348 -597 241 -229 515 -342 847 -348
129 -3 180 1 270 18 201 40 407 137 560 265 114 94 216 216 293 346 43 74 112
240 121 291 3 17 10 46 16 65 24 80 34 341 17 455 -65 445 -368 827 -789 994
-86 34 -218 67 -303 77 -60 7 -223 13 -228 8z"/>
</g>
</svg>
